# Blender v3.0.0 OBJ File: ''
# www.blender.org
mtllib papers.mtl
o Plane_Plane.005
v -0.051057 -1.498700 0.478047
v -0.356420 -1.498700 -0.271113
v 0.086940 -1.498700 -0.451830
v 0.392303 -1.498700 0.297331
v -0.051057 -1.484406 0.478047
v 0.392303 -1.484406 0.297331
v 0.086940 -1.484406 -0.451830
v -0.356420 -1.484406 -0.271113
vt 0.000000 0.000000
vt 0.000000 1.000000
vt 1.000000 1.000000
vt 1.000000 0.000000
vt 0.000000 0.000000
vt 1.000000 0.000000
vt 1.000000 1.000000
vt 0.000000 1.000000
vn -0.0000 -1.0000 -0.0000
vn 0.0000 1.0000 0.0000
vn -0.3775 0.0000 -0.9260
vn 0.3775 0.0000 0.9260
vn 0.9260 0.0000 -0.3775
vn -0.9260 0.0000 0.3775
usemtl Material.006
s 1
f 1/1/1 2/2/1 3/3/1 4/4/1
f 5/5/2 6/6/2 7/7/2 8/8/2
f 3/3/3 2/2/3 8/8/3 7/7/3
f 1/1/4 4/4/4 6/6/4 5/5/4
f 4/4/5 3/3/5 7/7/5 6/6/5
f 2/2/6 1/1/6 5/5/6 8/8/6
o Plane.001_Plane.007
v -0.093696 -1.484475 0.359448
v -0.211872 -1.484475 -0.440878
v 0.261768 -1.484475 -0.510816
v 0.379945 -1.484475 0.289510
v -0.093696 -1.470181 0.359448
v 0.379945 -1.470181 0.289510
v 0.261768 -1.470180 -0.510816
v -0.211872 -1.470180 -0.440878
vt 0.000000 0.000000
vt 0.000000 1.000000
vt 1.000000 1.000000
vt 1.000000 0.000000
vt 0.000000 0.000000
vt 1.000000 0.000000
vt 1.000000 1.000000
vt 0.000000 1.000000
vn -0.0000 -1.0000 -0.0000
vn 0.0000 1.0000 0.0000
vn -0.1461 0.0000 -0.9893
vn 0.1461 0.0000 0.9893
vn 0.9893 0.0000 -0.1461
vn -0.9893 0.0000 0.1461
usemtl Material.002
s 1
f 9/9/7 10/10/7 11/11/7 12/12/7
f 13/13/8 14/14/8 15/15/8 16/16/8
f 11/11/9 10/10/9 16/16/9 15/15/9
f 9/9/10 12/12/10 14/14/10 13/13/10
f 12/12/11 11/11/11 15/15/11 14/14/11
f 10/10/12 9/9/12 13/13/12 16/16/12
o Plane.002_Plane.008
v -0.182977 -1.470250 0.520738
v -0.321608 -1.470250 -0.276300
v 0.150086 -1.470250 -0.358343
v 0.288717 -1.470250 0.438695
v -0.182977 -1.455955 0.520738
v 0.288717 -1.455955 0.438695
v 0.150086 -1.455955 -0.358343
v -0.321608 -1.455955 -0.276300
vt 0.000000 0.000000
vt 0.000000 1.000000
vt 1.000000 1.000000
vt 1.000000 0.000000
vt 0.000000 0.000000
vt 1.000000 0.000000
vt 1.000000 1.000000
vt 0.000000 1.000000
vn -0.0000 -1.0000 -0.0000
vn 0.0000 1.0000 0.0000
vn -0.1714 0.0000 -0.9852
vn 0.1714 0.0000 0.9852
vn 0.9852 0.0000 -0.1714
vn -0.9852 0.0000 0.1714
usemtl Material.005
s 1
f 17/17/13 18/18/13 19/19/13 20/20/13
f 21/21/14 22/22/14 23/23/14 24/24/14
f 19/19/15 18/18/15 24/24/15 23/23/15
f 17/17/16 20/20/16 22/22/16 21/21/16
f 20/20/17 19/19/17 23/23/17 22/22/17
f 18/18/18 17/17/18 21/21/18 24/24/18
o Plane.003_Plane.009
v -0.194997 -1.456025 0.419604
v -0.270268 -1.456025 -0.385891
v 0.206432 -1.456025 -0.430437
v 0.281702 -1.456025 0.375058
v -0.194997 -1.441731 0.419604
v 0.281702 -1.441731 0.375058
v 0.206432 -1.441730 -0.430437
v -0.270268 -1.441730 -0.385891
vt 0.000000 0.000000
vt 0.000000 1.000000
vt 1.000000 1.000000
vt 1.000000 0.000000
vt 0.000000 0.000000
vt 1.000000 0.000000
vt 1.000000 1.000000
vt 0.000000 1.000000
vn 0.0000 -1.0000 -0.0000
vn 0.0000 1.0000 0.0000
vn -0.0930 0.0000 -0.9957
vn 0.0930 0.0000 0.9957
vn 0.9957 0.0000 -0.0930
vn -0.9957 0.0000 0.0930
usemtl Material.008
s 1
f 25/25/19 26/26/19 27/27/19 28/28/19
f 29/29/20 30/30/20 31/31/20 32/32/20
f 27/27/21 26/26/21 32/32/21 31/31/21
f 25/25/22 28/28/22 30/30/22 29/29/22
f 28/28/23 27/27/23 31/31/23 30/30/23
f 26/26/24 25/25/24 29/29/24 32/32/24
o Plane.004_Plane.010
v -0.089414 -1.441800 0.533328
v -0.399699 -1.441800 -0.213807
v 0.042462 -1.441800 -0.397437
v 0.352747 -1.441800 0.349699
v -0.089414 -1.427506 0.533328
v 0.352747 -1.427505 0.349699
v 0.042462 -1.427505 -0.397437
v -0.399699 -1.427505 -0.213807
vt 0.000000 0.000000
vt 0.000000 1.000000
vt 1.000000 1.000000
vt 1.000000 0.000000
vt 0.000000 0.000000
vt 1.000000 0.000000
vt 1.000000 1.000000
vt 0.000000 1.000000
vn -0.0000 -1.0000 -0.0000
vn -0.0000 1.0000 -0.0000
vn -0.3835 0.0000 -0.9235
vn 0.3835 0.0000 0.9235
vn 0.9235 0.0000 -0.3835
vn -0.9235 0.0000 0.3835
usemtl Material.007
s 1
f 33/33/25 34/34/25 35/35/25 36/36/25
f 37/37/26 38/38/26 39/39/26 40/40/26
f 35/35/27 34/34/27 40/40/27 39/39/27
f 33/33/28 36/36/28 38/38/28 37/37/28
f 36/36/29 35/35/29 39/39/29 38/38/29
f 34/34/30 33/33/30 37/37/30 40/40/30
o Plane.005_Plane.011
v -0.042339 -1.427575 0.469356
v -0.304942 -1.427575 -0.295841
v 0.147909 -1.427575 -0.451252
v 0.410512 -1.427575 0.313945
v -0.042339 -1.413280 0.469356
v 0.410512 -1.413280 0.313945
v 0.147909 -1.413280 -0.451252
v -0.304942 -1.413280 -0.295841
vt 0.000000 0.000000
vt 0.000000 1.000000
vt 1.000000 1.000000
vt 1.000000 0.000000
vt 0.000000 0.000000
vt 1.000000 0.000000
vt 1.000000 1.000000
vt 0.000000 1.000000
vn 0.0000 -1.0000 0.0000
vn 0.0000 1.0000 0.0000
vn -0.3246 0.0000 -0.9459
vn 0.3246 0.0000 0.9459
vn 0.9459 0.0000 -0.3246
vn -0.9459 0.0000 0.3246
usemtl Material.004
s 1
f 41/41/31 42/42/31 43/43/31 44/44/31
f 45/45/32 46/46/32 47/47/32 48/48/32
f 43/43/33 42/42/33 48/48/33 47/47/33
f 41/41/34 44/44/34 46/46/34 45/45/34
f 44/44/35 43/43/35 47/47/35 46/46/35
f 42/42/36 41/41/36 45/45/36 48/48/36
o Plane.006_Plane.012
v -0.256364 -1.413350 0.470665
v -0.270741 -1.413350 -0.338211
v 0.207959 -1.413350 -0.346720
v 0.222336 -1.413350 0.462157
v -0.256364 -1.399055 0.470665
v 0.222336 -1.399055 0.462157
v 0.207959 -1.399055 -0.346720
v -0.270741 -1.399055 -0.338211
vt 0.000000 0.000000
vt 0.000000 1.000000
vt 1.000000 1.000000
vt 1.000000 0.000000
vt 0.000000 0.000000
vt 1.000000 0.000000
vt 1.000000 1.000000
vt 0.000000 1.000000
vn -0.0000 -1.0000 -0.0000
vn 0.0000 1.0000 0.0000
vn -0.0178 0.0000 -0.9998
vn 0.0178 -0.0000 0.9998
vn 0.9998 0.0000 -0.0178
vn -0.9998 0.0000 0.0178
usemtl Material.009
s 1
f 49/49/37 50/50/37 51/51/37 52/52/37
f 53/53/38 54/54/38 55/55/38 56/56/38
f 51/51/39 50/50/39 56/56/39 55/55/39
f 49/49/40 52/52/40 54/54/40 53/53/40
f 52/52/41 51/51/41 55/55/41 54/54/41
f 50/50/42 49/49/42 53/53/42 56/56/42
o Plane.007_Plane.013
v -0.161910 -1.399125 0.303011
v -0.151986 -1.399124 -0.505932
v 0.326754 -1.399124 -0.500058
v 0.316829 -1.399125 0.308885
v -0.161910 -1.384830 0.303011
v 0.316829 -1.384830 0.308885
v 0.326754 -1.384830 -0.500058
v -0.151986 -1.384830 -0.505932
vt 0.000000 0.000000
vt 0.000000 1.000000
vt 1.000000 1.000000
vt 1.000000 0.000000
vt 0.000000 0.000000
vt 1.000000 0.000000
vt 1.000000 1.000000
vt 0.000000 1.000000
vn 0.0000 -1.0000 -0.0000
vn -0.0000 1.0000 0.0000
vn 0.0123 0.0000 -0.9999
vn -0.0123 0.0000 0.9999
vn 0.9999 0.0000 0.0123
vn -0.9999 0.0000 -0.0123
usemtl Material.001
s 1
f 57/57/43 58/58/43 59/59/43 60/60/43
f 61/61/44 62/62/44 63/63/44 64/64/44
f 59/59/45 58/58/45 64/64/45 63/63/45
f 57/57/46 60/60/46 62/62/46 61/61/46
f 60/60/47 59/59/47 63/63/47 62/62/47
f 58/58/48 57/57/48 61/61/48 64/64/48
o Plane.008_Plane.014
v -0.167140 -1.384899 0.500447
v -0.298760 -1.384899 -0.297779
v 0.173638 -1.384899 -0.375672
v 0.305257 -1.384899 0.422553
v -0.167140 -1.370605 0.500447
v 0.305257 -1.370605 0.422553
v 0.173638 -1.370605 -0.375672
v -0.298760 -1.370605 -0.297779
vt 0.000000 0.000000
vt 0.000000 1.000000
vt 1.000000 1.000000
vt 1.000000 0.000000
vt 0.000000 0.000000
vt 1.000000 0.000000
vt 1.000000 1.000000
vt 0.000000 1.000000
vn -0.0000 -1.0000 -0.0000
vn -0.0000 1.0000 0.0000
vn -0.1627 0.0000 -0.9867
vn 0.1627 0.0000 0.9867
vn 0.9867 0.0000 -0.1627
vn -0.9867 0.0000 0.1627
usemtl Material.003
s 1
f 65/65/49 66/66/49 67/67/49 68/68/49
f 69/69/50 70/70/50 71/71/50 72/72/50
f 67/67/51 66/66/51 72/72/51 71/71/51
f 65/65/52 68/68/52 70/70/52 69/69/52
f 68/68/53 67/67/53 71/71/53 70/70/53
f 66/66/54 65/65/54 69/69/54 72/72/54
