# Blender v3.0.0 OBJ File: ''
# www.blender.org
mtllib tv.mtl
o cube.064
v 1.482566 -2.541890 0.089734
v -0.074434 -2.541890 0.089734
v -0.074434 -2.036890 0.089734
v 1.482566 -2.036890 0.089734
v 1.482566 -2.541890 0.257734
v 1.482566 -2.036890 0.257734
v -0.074434 -2.541890 0.257734
v -0.074434 -2.036890 0.257734
vt 0.000000 0.890625
vt 0.125000 0.890625
vt 0.125000 1.000000
vt 0.000000 1.000000
vt 0.000000 0.265625
vt 0.062500 0.265625
vt 0.062500 1.000000
vt 0.000000 1.000000
vt 0.000000 0.890625
vt 0.125000 0.890625
vt 0.125000 1.000000
vt 0.000000 1.000000
vt 0.000000 0.265625
vt 0.062500 0.265625
vt 0.062500 1.000000
vt 0.000000 1.000000
vt 0.000000 0.937500
vt 1.000000 0.937500
vt 1.000000 1.000000
vt 0.000000 0.890625
vt 0.125000 0.890625
vt 0.125000 1.000000
vt 0.000000 1.000000
vn 0.0000 0.0000 -1.0000
vn 1.0000 0.0000 0.0000
vn 0.0000 -0.0000 1.0000
vn -1.0000 -0.0000 0.0000
vn 0.0000 1.0000 0.0000
vn 0.0000 -1.0000 0.0000
usemtl m_1.002
s 1
f 1/1/1 2/2/1 3/3/1 4/4/1
f 5/5/2 1/6/2 4/7/2 6/8/2
f 7/9/3 5/10/3 6/11/3 8/12/3
f 2/13/4 7/14/4 8/15/4 3/16/4
f 8/17/5 6/18/5 4/19/5 3/16/5
f 2/20/6 1/21/6 5/22/6 7/23/6
o cube.065
v 1.482566 -1.658890 0.089734
v -0.074434 -1.658890 0.089734
v -0.074434 -0.985890 0.089734
v 1.482566 -0.985890 0.089734
v 1.482566 -1.658890 0.257734
v 1.482566 -0.985890 0.257734
v -0.074434 -1.658890 0.257734
v -0.074434 -0.985890 0.257734
vt 0.000000 0.890625
vt 0.125000 0.890625
vt 0.125000 1.000000
vt 0.000000 1.000000
vt 0.000000 0.265625
vt 0.062500 0.265625
vt 0.062500 1.000000
vt 0.000000 1.000000
vt 0.000000 0.890625
vt 0.125000 0.890625
vt 0.125000 1.000000
vt 0.000000 1.000000
vt 0.000000 0.265625
vt 0.062500 0.265625
vt 0.062500 1.000000
vt 0.000000 1.000000
vt 0.000000 0.890625
vt 0.125000 0.890625
vt 0.125000 1.000000
vt 0.000000 0.937500
vt 1.000000 0.937500
vt 1.000000 1.000000
vt 0.000000 1.000000
vn 0.0000 0.0000 -1.0000
vn 1.0000 0.0000 0.0000
vn 0.0000 -0.0000 1.0000
vn -1.0000 0.0000 0.0000
vn 0.0000 1.0000 0.0000
vn 0.0000 -1.0000 0.0000
usemtl m_1.002
s 1
f 9/24/7 10/25/7 11/26/7 12/27/7
f 13/28/8 9/29/8 12/30/8 14/31/8
f 15/32/9 13/33/9 14/34/9 16/35/9
f 10/36/10 15/37/10 16/38/10 11/39/10
f 16/40/11 14/41/11 12/42/11 11/39/11
f 10/43/12 9/44/12 13/45/12 15/46/12
o cube.066
v 0.432566 -2.036890 0.089734
v -0.074434 -2.036890 0.089734
v -0.074434 -1.658890 0.089734
v 0.432566 -1.658890 0.089734
v 0.432566 -2.036890 0.257734
v 0.432566 -1.658890 0.257734
v -0.074434 -2.036890 0.257734
v -0.074434 -1.658890 0.257734
vt 0.000000 0.890625
vt 0.125000 0.890625
vt 0.125000 1.000000
vt 0.000000 1.000000
vt 0.000000 0.265625
vt 0.062500 0.265625
vt 0.062500 1.000000
vt 0.000000 1.000000
vt 0.000000 0.890625
vt 0.125000 0.890625
vt 0.125000 1.000000
vt 0.000000 1.000000
vt 0.000000 0.265625
vt 0.062500 0.265625
vt 0.062500 1.000000
vt 0.000000 1.000000
vt 0.000000 0.937500
vt 1.000000 0.937500
vt 1.000000 1.000000
vt 0.000000 0.937500
vt 1.000000 0.937500
vt 1.000000 1.000000
vt 0.000000 1.000000
vn 0.0000 0.0000 -1.0000
vn 1.0000 0.0000 0.0000
vn 0.0000 -0.0000 1.0000
vn -1.0000 0.0000 0.0000
vn 0.0000 1.0000 0.0000
vn 0.0000 -1.0000 0.0000
usemtl m_1.002
s 1
f 17/47/13 18/48/13 19/49/13 20/50/13
f 21/51/14 17/52/14 20/53/14 22/54/14
f 23/55/15 21/56/15 22/57/15 24/58/15
f 18/59/16 23/60/16 24/61/16 19/62/16
f 24/63/17 22/64/17 20/65/17 19/62/17
f 18/66/18 17/67/18 21/68/18 23/69/18
o cube.067
v 1.482566 -2.036890 0.089734
v 1.104566 -2.036890 0.089734
v 1.104566 -1.658890 0.089734
v 1.482566 -1.658890 0.089734
v 1.482566 -2.036890 0.257734
v 1.482566 -1.658890 0.257734
v 1.104566 -2.036890 0.257734
v 1.104566 -1.658890 0.257734
vt 0.000000 0.890625
vt 0.125000 0.890625
vt 0.125000 1.000000
vt 0.000000 1.000000
vt 0.000000 0.265625
vt 0.062500 0.265625
vt 0.062500 1.000000
vt 0.000000 1.000000
vt 0.000000 0.890625
vt 0.125000 0.890625
vt 0.125000 1.000000
vt 0.000000 1.000000
vt 0.000000 0.265625
vt 0.062500 0.265625
vt 0.062500 1.000000
vt 0.000000 1.000000
vt 0.000000 0.937500
vt 1.000000 0.937500
vt 1.000000 1.000000
vt 0.000000 0.937500
vt 1.000000 0.937500
vt 1.000000 1.000000
vt 0.000000 1.000000
vn 0.0000 0.0000 -1.0000
vn 1.0000 0.0000 0.0000
vn 0.0000 -0.0000 1.0000
vn -1.0000 0.0000 0.0000
vn 0.0000 1.0000 0.0000
vn 0.0000 -1.0000 0.0000
usemtl m_1.002
s 1
f 25/70/19 26/71/19 27/72/19 28/73/19
f 29/74/20 25/75/20 28/76/20 30/77/20
f 31/78/21 29/79/21 30/80/21 32/81/21
f 26/82/22 31/83/22 32/84/22 27/85/22
f 32/86/23 30/87/23 28/88/23 27/85/23
f 26/89/24 25/90/24 29/91/24 31/92/24
o cube.068
v 1.104566 -2.036890 0.215734
v 0.432566 -2.036890 0.215734
v 0.432566 -1.658890 0.215734
v 1.104566 -1.658890 0.215734
v 1.104566 -2.036890 0.257734
v 1.104566 -1.658890 0.257734
v 0.432566 -2.036890 0.257734
v 0.432566 -1.658890 0.257734
vt 0.000000 0.890625
vt 0.125000 0.890625
vt 0.125000 1.000000
vt 0.000000 1.000000
vt 0.000000 0.265625
vt 0.062500 0.265625
vt 0.062500 1.000000
vt 0.000000 1.000000
vt 0.000000 0.890625
vt 0.125000 0.890625
vt 0.125000 1.000000
vt 0.000000 1.000000
vt 0.000000 0.265625
vt 0.062500 0.265625
vt 0.062500 1.000000
vt 0.000000 1.000000
vt 0.000000 0.937500
vt 1.000000 0.937500
vt 1.000000 1.000000
vt 0.000000 0.937500
vt 1.000000 0.937500
vt 1.000000 1.000000
vt 0.000000 1.000000
vn 0.0000 0.0000 -1.0000
vn 1.0000 0.0000 0.0000
vn 0.0000 -0.0000 1.0000
vn -1.0000 0.0000 0.0000
vn 0.0000 1.0000 0.0000
vn 0.0000 -1.0000 0.0000
usemtl m_0.002
s 1
f 33/93/25 34/94/25 35/95/25 36/96/25
usemtl m_1.002
f 37/97/26 33/98/26 36/99/26 38/100/26
f 39/101/27 37/102/27 38/103/27 40/104/27
f 34/105/28 39/106/28 40/107/28 35/108/28
f 40/109/29 38/110/29 36/111/29 35/108/29
f 34/112/30 33/113/30 37/114/30 39/115/30
o cube.069
v 1.104566 -2.078890 -0.078266
v 0.432566 -2.078890 -0.078266
v 0.432566 -2.036890 -0.078266
v 1.104566 -2.036890 -0.078266
v 1.104566 -2.078890 0.089734
v 1.104566 -2.036890 0.089734
v 0.432566 -2.078890 0.089734
v 0.432566 -2.036890 0.089734
vt 0.000000 0.890625
vt 0.125000 0.890625
vt 0.125000 1.000000
vt 0.000000 1.000000
vt 0.000000 0.265625
vt 0.062500 0.265625
vt 0.062500 1.000000
vt 0.000000 1.000000
vt 0.000000 0.265625
vt 1.000000 0.265625
vt 1.000000 1.000000
vt 0.000000 1.000000
vt 0.000000 0.265625
vt 0.062500 0.265625
vt 0.062500 1.000000
vt 0.000000 1.000000
vt 0.000000 0.937500
vt 1.000000 0.937500
vt 1.000000 1.000000
vt 0.000000 0.937500
vt 1.000000 0.937500
vt 1.000000 1.000000
vt 0.000000 1.000000
vn 0.0000 0.0000 -1.0000
vn 1.0000 0.0000 0.0000
vn 0.0000 -0.0000 1.0000
vn -1.0000 0.0000 0.0000
vn 0.0000 1.0000 0.0000
vn 0.0000 -1.0000 0.0000
usemtl m_1.002
s 1
f 41/116/31 42/117/31 43/118/31 44/119/31
f 45/120/32 41/121/32 44/122/32 46/123/32
f 47/124/33 45/125/33 46/126/33 48/127/33
f 42/128/34 47/129/34 48/130/34 43/131/34
f 48/132/35 46/133/35 44/134/35 43/131/35
f 42/135/36 41/136/36 45/137/36 47/138/36
o cube.070
v -0.074434 -1.280890 0.089734
v -1.090184 -1.280890 0.089734
v -1.090184 -0.985890 0.089734
v -0.074434 -0.985890 0.089734
v -0.074434 -1.280890 0.257734
v -0.074434 -0.985890 0.257734
v -1.090184 -1.280890 0.257734
v -1.090184 -0.985890 0.257734
vt 0.000000 0.890625
vt 0.125000 0.890625
vt 0.125000 1.000000
vt 0.000000 1.000000
vt 0.000000 0.265625
vt 0.062500 0.265625
vt 0.062500 1.000000
vt 0.000000 1.000000
vt 0.000000 0.890625
vt 0.125000 0.890625
vt 0.125000 1.000000
vt 0.000000 1.000000
vt 0.000000 0.890625
vt 0.125000 0.890625
vt 0.125000 1.000000
vt 0.000000 1.000000
vt 0.000000 0.890625
vt 0.125000 0.890625
vt 0.125000 1.000000
vt 0.000000 0.937500
vt 1.000000 0.937500
vt 1.000000 1.000000
vt 0.000000 1.000000
vn 0.0000 0.0000 -1.0000
vn 1.0000 0.0000 0.0000
vn 0.0000 -0.0000 1.0000
vn -1.0000 0.0000 0.0000
vn 0.0000 1.0000 0.0000
vn 0.0000 -1.0000 -0.0000
usemtl m_1.002
s 1
f 49/139/37 50/140/37 51/141/37 52/142/37
f 53/143/38 49/144/38 52/145/38 54/146/38
f 55/147/39 53/148/39 54/149/39 56/150/39
f 50/151/40 55/152/40 56/153/40 51/154/40
f 56/155/41 54/156/41 52/157/41 51/154/41
f 50/158/42 49/159/42 53/160/42 55/161/42
o cube.071
v -0.074434 -2.541890 0.089734
v -1.090184 -2.541890 0.089734
v -1.090184 -2.252140 0.089734
v -0.074434 -2.252140 0.089734
v -0.074434 -2.541890 0.257734
v -0.074434 -2.252140 0.257734
v -1.090184 -2.541890 0.257734
v -1.090184 -2.252140 0.257734
vt 0.000000 0.890625
vt 0.125000 0.890625
vt 0.125000 1.000000
vt 0.000000 1.000000
vt 0.000000 0.265625
vt 0.062500 0.265625
vt 0.062500 1.000000
vt 0.000000 1.000000
vt 0.000000 0.890625
vt 0.125000 0.890625
vt 0.125000 1.000000
vt 0.000000 1.000000
vt 0.000000 0.890625
vt 0.125000 0.890625
vt 0.125000 1.000000
vt 0.000000 1.000000
vt 0.000000 0.937500
vt 1.000000 0.937500
vt 1.000000 1.000000
vt 0.000000 0.937500
vt 1.000000 0.937500
vt 1.000000 1.000000
vt 0.000000 1.000000
vn 0.0000 0.0000 -1.0000
vn 1.0000 0.0000 0.0000
vn 0.0000 -0.0000 1.0000
vn -1.0000 0.0000 0.0000
vn 0.0000 1.0000 0.0000
vn 0.0000 -1.0000 0.0000
usemtl m_1.002
s 1
f 57/162/43 58/163/43 59/164/43 60/165/43
f 61/166/44 57/167/44 60/168/44 62/169/44
f 63/170/45 61/171/45 62/172/45 64/173/45
f 58/174/46 63/175/46 64/176/46 59/177/46
f 64/178/47 62/179/47 60/180/47 59/177/47
f 58/181/48 57/182/48 61/183/48 63/184/48
o cube.072
v -0.074434 -2.252140 0.215734
v -1.090184 -2.252140 0.215734
v -1.090184 -1.280890 0.215734
v -0.074434 -1.280890 0.215734
v -0.074434 -2.252140 0.257734
v -0.074434 -1.280890 0.257734
v -1.090184 -2.252140 0.257734
v -1.090184 -1.280890 0.257734
vt 0.000000 0.265625
vt 1.000000 0.265625
vt 1.000000 1.000000
vt 0.000000 1.000000
vt 0.000000 0.265625
vt 0.062500 0.265625
vt 0.062500 1.000000
vt 0.000000 1.000000
vt 0.000000 0.890625
vt 0.125000 0.890625
vt 0.125000 1.000000
vt 0.000000 1.000000
vt 0.000000 0.265625
vt 0.062500 0.265625
vt 0.062500 1.000000
vt 0.000000 1.000000
vt 0.000000 0.937500
vt 1.000000 0.937500
vt 1.000000 1.000000
vt 0.000000 0.937500
vt 1.000000 0.937500
vt 1.000000 1.000000
vt 0.000000 1.000000
vn 0.0000 0.0000 -1.0000
vn 1.0000 -0.0000 0.0000
vn 0.0000 -0.0000 1.0000
vn -1.0000 0.0000 0.0000
vn 0.0000 1.0000 0.0000
vn 0.0000 -1.0000 0.0000
usemtl m_1.002
s 1
f 65/185/49 66/186/49 67/187/49 68/188/49
f 69/189/50 65/190/50 68/191/50 70/192/50
f 71/193/51 69/194/51 70/195/51 72/196/51
f 66/197/52 71/198/52 72/199/52 67/200/52
f 72/201/53 70/202/53 68/203/53 67/200/53
f 66/204/54 65/205/54 69/206/54 71/207/54
o cube.073
v -0.093628 -1.359640 0.084484
v -1.996752 -1.359640 0.084484
v -1.996752 -1.294014 0.084484
v -0.093628 -1.294014 0.084484
v -0.093628 -1.359640 0.215734
v -0.093628 -1.294014 0.215734
v -1.996752 -1.359640 0.215734
v -1.996752 -1.294014 0.215734
vt 0.125000 0.890625
vt 0.187500 0.890625
vt 0.187500 0.937500
vt 0.125000 0.937500
vt 0.125000 0.890625
vt 0.187500 0.890625
vt 0.187500 0.937500
vt 0.125000 0.937500
vt 0.125000 0.890625
vt 0.187500 0.890625
vt 0.187500 0.937500
vt 0.125000 0.937500
vt 0.125000 0.890625
vt 0.187500 0.890625
vt 0.187500 0.937500
vt 0.125000 0.937500
vt 0.125000 0.890625
vt 0.187500 0.890625
vt 0.187500 0.937500
vt 0.125000 0.937500
vn 0.0000 0.0000 -1.0000
vn 1.0000 0.0000 0.0000
vn 0.0000 -0.0000 1.0000
vn -1.0000 0.0000 0.0000
vn 0.0000 1.0000 0.0000
vn 0.0000 -1.0000 -0.0000
usemtl m_0.002
s 1
f 73/208/55 74/209/55 75/210/55 76/211/55
f 77/212/56 73/213/56 76/214/56 78/215/56
f 79/216/57 77/217/57 78/218/57 80/219/57
f 74/220/58 79/221/58 80/222/58 75/223/58
f 80/224/59 78/225/59 76/214/59 75/223/59
f 74/220/60 73/213/60 77/226/60 79/227/60
o cube.074
v -0.146128 -2.225890 0.084484
v -1.996752 -2.225890 0.084484
v -1.996752 -2.160264 0.084484
v -0.146128 -2.160264 0.084484
v -0.146128 -2.225890 0.215734
v -0.146128 -2.160266 0.215734
v -1.996752 -2.225890 0.215734
v -1.996752 -2.160266 0.215734
vt 0.125000 0.890625
vt 0.187500 0.890625
vt 0.187500 0.937500
vt 0.125000 0.937500
vt 0.125000 0.890625
vt 0.187500 0.890625
vt 0.187500 0.937500
vt 0.125000 0.937500
vt 0.125000 0.890625
vt 0.187500 0.890625
vt 0.187500 0.937500
vt 0.125000 0.937500
vt 0.125000 0.890625
vt 0.187500 0.890625
vt 0.187500 0.937500
vt 0.125000 0.937500
vt 0.125000 0.890625
vt 0.187500 0.890625
vt 0.187500 0.937500
vt 0.125000 0.937500
vn 0.0000 0.0000 -1.0000
vn 1.0000 0.0000 0.0000
vn 0.0000 0.0000 1.0000
vn -1.0000 0.0000 0.0000
vn 0.0000 1.0000 0.0000
vn 0.0000 -1.0000 0.0000
usemtl m_0.002
s 1
f 81/228/61 82/229/61 83/230/61 84/231/61
f 85/232/62 81/233/62 84/234/62 86/235/62
f 87/236/63 85/237/63 86/238/63 88/239/63
f 82/240/64 87/241/64 88/242/64 83/243/64
f 88/244/65 86/245/65 84/234/65 83/243/65
f 82/240/66 81/233/66 85/246/66 87/247/66
o cube.075
v -0.093628 -2.225890 0.084484
v -0.159252 -2.225890 0.084484
v -0.159252 -1.359640 0.084484
v -0.093628 -1.359640 0.084484
v -0.093628 -2.225890 0.215734
v -0.093628 -1.359640 0.215734
v -0.159252 -2.225890 0.215734
v -0.159252 -1.359640 0.215734
vt 0.125000 0.890625
vt 0.187500 0.890625
vt 0.187500 0.937500
vt 0.125000 0.937500
vt 0.125000 0.890625
vt 0.187500 0.890625
vt 0.187500 0.937500
vt 0.125000 0.937500
vt 0.125000 0.890625
vt 0.187500 0.890625
vt 0.187500 0.937500
vt 0.125000 0.937500
vt 0.125000 0.890625
vt 0.187500 0.890625
vt 0.187500 0.937500
vt 0.125000 0.937500
vt 0.125000 0.890625
vt 0.187500 0.890625
vt 0.187500 0.937500
vt 0.125000 0.937500
vn 0.0000 0.0000 -1.0000
vn 1.0000 -0.0000 0.0000
vn 0.0000 -0.0000 1.0000
vn -1.0000 0.0000 0.0000
vn 0.0000 1.0000 0.0000
vn 0.0000 -1.0000 0.0000
usemtl m_0.002
s 1
f 89/248/67 90/249/67 91/250/67 92/251/67
f 93/252/68 89/253/68 92/254/68 94/255/68
f 95/256/69 93/257/69 94/258/69 96/259/69
f 90/260/70 95/261/70 96/262/70 91/263/70
f 96/264/71 94/265/71 92/254/71 91/263/71
f 90/260/72 89/253/72 93/266/72 95/267/72
o cube.076
v -1.931128 -2.173390 0.084484
v -1.996752 -2.173390 0.084484
v -1.996752 -1.359640 0.084484
v -1.931128 -1.359640 0.084484
v -1.931128 -2.173390 0.215734
v -1.931128 -1.359640 0.215734
v -1.996752 -2.173390 0.215734
v -1.996752 -1.359640 0.215734
vt 0.125000 0.890625
vt 0.187500 0.890625
vt 0.187500 0.937500
vt 0.125000 0.937500
vt 0.125000 0.890625
vt 0.187500 0.890625
vt 0.187500 0.937500
vt 0.125000 0.937500
vt 0.125000 0.890625
vt 0.187500 0.890625
vt 0.187500 0.937500
vt 0.125000 0.937500
vt 0.125000 0.890625
vt 0.187500 0.890625
vt 0.187500 0.937500
vt 0.125000 0.937500
vt 0.125000 0.890625
vt 0.187500 0.890625
vt 0.187500 0.937500
vt 0.125000 0.937500
vn 0.0000 0.0000 -1.0000
vn 1.0000 0.0000 0.0000
vn 0.0000 -0.0000 1.0000
vn -1.0000 0.0000 0.0000
vn 0.0000 1.0000 0.0000
vn 0.0000 -1.0000 0.0000
usemtl m_0.002
s 1
f 97/268/73 98/269/73 99/270/73 100/271/73
f 101/272/74 97/273/74 100/274/74 102/275/74
f 103/276/75 101/277/75 102/278/75 104/279/75
f 98/280/76 103/281/76 104/282/76 99/283/76
f 104/284/77 102/285/77 100/274/77 99/283/77
f 98/280/78 97/273/78 101/286/78 103/287/78
o cube.077
v -0.159252 -2.225890 0.110734
v -1.931128 -2.225890 0.110734
v -1.931128 -1.359640 0.110734
v -0.159252 -1.359640 0.110734
v -0.159252 -2.225890 0.215734
v -0.159252 -1.359640 0.215734
v -1.931128 -2.225890 0.215734
v -1.931128 -1.359640 0.215734
vt 0.437500 0.453125
vt 0.500000 0.453125
vt 0.500000 0.500000
vt 0.437500 0.500000
vt 0.000000 0.265625
vt 0.062500 0.265625
vt 0.062500 1.000000
vt 0.000000 1.000000
vt 0.125000 0.890625
vt 0.187500 0.890625
vt 0.187500 0.937500
vt 0.125000 0.937500
vt 0.000000 0.265625
vt 0.062500 0.265625
vt 0.062500 1.000000
vt 0.000000 1.000000
vt 0.000000 0.937500
vt 1.000000 0.937500
vt 1.000000 1.000000
vt 0.000000 0.937500
vt 1.000000 0.937500
vt 1.000000 1.000000
vt 0.000000 1.000000
vn 0.0000 0.0000 -1.0000
vn 1.0000 0.0000 0.0000
vn 0.0000 -0.0000 1.0000
vn -1.0000 0.0000 0.0000
vn 0.0000 1.0000 0.0000
vn 0.0000 -1.0000 0.0000
usemtl m_0.002
s 1
f 105/288/79 106/289/79 107/290/79 108/291/79
f 109/292/80 105/293/80 108/294/80 110/295/80
f 111/296/81 109/297/81 110/298/81 112/299/81
f 106/300/82 111/301/82 112/302/82 107/303/82
f 112/304/83 110/305/83 108/306/83 107/303/83
f 106/307/84 105/308/84 109/309/84 111/310/84
o cube.078
v -0.907378 -2.199640 0.077922
v -1.169878 -2.199640 0.077922
v -1.169878 -2.186514 0.077922
v -0.907378 -2.186514 0.077922
v -0.907378 -2.199640 0.084484
v -0.907378 -2.186514 0.084484
v -1.169878 -2.199640 0.084484
v -1.169878 -2.186514 0.084484
vt 0.000000 0.265625
vt 1.000000 0.265625
vt 1.000000 1.000000
vt 0.000000 1.000000
vt 0.000000 0.265625
vt 0.062500 0.265625
vt 0.062500 1.000000
vt 0.000000 1.000000
vt 0.000000 0.265625
vt 1.000000 0.265625
vt 1.000000 1.000000
vt 0.000000 1.000000
vt 0.000000 0.265625
vt 0.062500 0.265625
vt 0.062500 1.000000
vt 0.000000 1.000000
vt 0.000000 0.937500
vt 1.000000 0.937500
vt 1.000000 1.000000
vt 0.000000 0.937500
vt 1.000000 0.937500
vt 1.000000 1.000000
vt 0.000000 1.000000
vn 0.0000 0.0000 -1.0000
vn 1.0000 0.0000 0.0000
vn 0.0000 0.0000 1.0000
vn -1.0000 0.0000 0.0000
vn 0.0000 1.0000 0.0000
vn 0.0000 -1.0000 0.0000
usemtl m_1.002
s 1
f 113/311/85 114/312/85 115/313/85 116/314/85
f 117/315/86 113/316/86 116/317/86 118/318/86
f 119/319/87 117/320/87 118/321/87 120/322/87
f 114/323/88 119/324/88 120/325/88 115/326/88
f 120/327/89 118/328/89 116/329/89 115/326/89
f 114/330/90 113/331/90 117/332/90 119/333/90
o cube.079
v 0.737066 -2.039514 -0.052016
v 0.590066 -2.039514 -0.052016
v 0.590066 -2.023764 -0.052016
v 0.737066 -2.023764 -0.052016
v 0.737066 -2.039514 0.089734
v 0.737066 -2.023764 0.089734
v 0.590066 -2.039514 0.089734
v 0.590066 -2.023764 0.089734
vt 0.000000 0.265625
vt 1.000000 0.265625
vt 1.000000 1.000000
vt 0.000000 1.000000
vt 0.000000 0.265625
vt 0.062500 0.265625
vt 0.062500 1.000000
vt 0.000000 1.000000
vt 0.000000 0.265625
vt 1.000000 0.265625
vt 1.000000 1.000000
vt 0.000000 1.000000
vt 0.000000 0.265625
vt 0.062500 0.265625
vt 0.062500 1.000000
vt 0.000000 1.000000
vt 0.000000 0.966250
vt 0.035000 0.966250
vt 0.035000 1.000000
vt 0.000000 0.937500
vt 1.000000 0.937500
vt 1.000000 1.000000
vt 0.000000 1.000000
vn 0.0000 0.0000 -1.0000
vn 1.0000 0.0000 0.0000
vn 0.0000 0.0000 1.0000
vn -1.0000 0.0000 0.0000
vn 0.0000 1.0000 0.0000
vn 0.0000 -1.0000 0.0000
usemtl m_2.001
s 1
f 121/334/91 122/335/91 123/336/91 124/337/91
f 125/338/92 121/339/92 124/340/92 126/341/92
f 127/342/93 125/343/93 126/344/93 128/345/93
f 122/346/94 127/347/94 128/348/94 123/349/94
f 128/350/95 126/351/95 124/352/95 123/349/95
f 122/353/96 121/354/96 125/355/96 127/356/96
o cube.080
v 0.737066 -2.039514 -0.052016
v 0.590066 -2.039514 -0.052016
v 0.590066 -1.761264 -0.052016
v 0.737066 -1.761264 -0.052016
v 0.737066 -2.039514 -0.041516
v 0.737066 -1.761264 -0.041516
v 0.590066 -2.039514 -0.041516
v 0.590066 -1.761264 -0.041516
vt 0.000000 0.265625
vt 1.000000 0.265625
vt 1.000000 1.000000
vt 0.000000 1.000000
vt 0.000000 0.265625
vt 0.062500 0.265625
vt 0.062500 1.000000
vt 0.000000 1.000000
vt 0.000000 0.265625
vt 1.000000 0.265625
vt 1.000000 1.000000
vt 0.000000 1.000000
vt 0.000000 0.265625
vt 0.062500 0.265625
vt 0.062500 1.000000
vt 0.000000 1.000000
vt 0.000000 0.966250
vt 0.035000 0.966250
vt 0.035000 1.000000
vt 0.000000 0.937500
vt 1.000000 0.937500
vt 1.000000 1.000000
vt 0.000000 1.000000
vn 0.0000 0.0000 -1.0000
vn 1.0000 0.0000 0.0000
vn 0.0000 -0.0000 1.0000
vn -1.0000 0.0000 0.0000
vn 0.0000 1.0000 0.0000
vn 0.0000 -1.0000 0.0000
usemtl m_2.001
s 1
f 129/357/97 130/358/97 131/359/97 132/360/97
f 133/361/98 129/362/98 132/363/98 134/364/98
f 135/365/99 133/366/99 134/367/99 136/368/99
f 130/369/100 135/370/100 136/371/100 131/372/100
f 136/373/101 134/374/101 132/375/101 131/372/101
f 130/376/102 129/377/102 133/378/102 135/379/102
o cube.081
v 0.737066 -2.039514 0.079234
v 0.590066 -2.039514 0.079234
v 0.590066 -1.761264 0.079234
v 0.737066 -1.761264 0.079234
v 0.737066 -2.039514 0.089734
v 0.737066 -1.761264 0.089734
v 0.590066 -2.039514 0.089734
v 0.590066 -1.761264 0.089734
vt 0.000000 0.265625
vt 1.000000 0.265625
vt 1.000000 1.000000
vt 0.000000 1.000000
vt 0.000000 0.265625
vt 0.062500 0.265625
vt 0.062500 1.000000
vt 0.000000 1.000000
vt 0.000000 0.265625
vt 1.000000 0.265625
vt 1.000000 1.000000
vt 0.000000 1.000000
vt 0.000000 0.265625
vt 0.062500 0.265625
vt 0.062500 1.000000
vt 0.000000 1.000000
vt 0.000000 0.966250
vt 0.035000 0.966250
vt 0.035000 1.000000
vt 0.000000 0.937500
vt 1.000000 0.937500
vt 1.000000 1.000000
vt 0.000000 1.000000
vn 0.0000 0.0000 -1.0000
vn 1.0000 0.0000 0.0000
vn 0.0000 -0.0000 1.0000
vn -1.0000 0.0000 0.0000
vn 0.0000 1.0000 0.0000
vn 0.0000 -1.0000 0.0000
usemtl m_2.001
s 1
f 137/380/103 138/381/103 139/382/103 140/383/103
f 141/384/104 137/385/104 140/386/104 142/387/104
f 143/388/105 141/389/105 142/390/105 144/391/105
f 138/392/106 143/393/106 144/394/106 139/395/106
f 144/396/107 142/397/107 140/398/107 139/395/107
f 138/399/108 137/400/108 141/401/108 143/402/108
o cube.082
v 0.737066 -2.039514 -0.052016
v 0.721316 -2.039514 -0.052016
v 0.721316 -1.761264 -0.052016
v 0.737066 -1.761264 -0.052016
v 0.737066 -2.039514 0.089734
v 0.737066 -1.761264 0.089734
v 0.721316 -2.039514 0.089734
v 0.721316 -1.761264 0.089734
vt 0.000000 0.265625
vt 1.000000 0.265625
vt 1.000000 1.000000
vt 0.000000 1.000000
vt 0.000000 0.265625
vt 0.062500 0.265625
vt 0.062500 1.000000
vt 0.000000 1.000000
vt 0.000000 0.265625
vt 1.000000 0.265625
vt 1.000000 1.000000
vt 0.000000 1.000000
vt 0.000000 0.265625
vt 0.062500 0.265625
vt 0.062500 1.000000
vt 0.000000 1.000000
vt 0.000000 0.966250
vt 0.035000 0.966250
vt 0.035000 1.000000
vt 0.000000 0.937500
vt 1.000000 0.937500
vt 1.000000 1.000000
vt 0.000000 1.000000
vn 0.0000 0.0000 -1.0000
vn 1.0000 0.0000 0.0000
vn 0.0000 -0.0000 1.0000
vn -1.0000 0.0000 0.0000
vn 0.0000 1.0000 0.0000
vn 0.0000 -1.0000 0.0000
usemtl m_2.001
s 1
f 145/403/109 146/404/109 147/405/109 148/406/109
f 149/407/110 145/408/110 148/409/110 150/410/110
f 151/411/111 149/412/111 150/413/111 152/414/111
f 146/415/112 151/416/112 152/417/112 147/418/112
f 152/419/113 150/420/113 148/421/113 147/418/113
f 146/422/114 145/423/114 149/424/114 151/425/114
o cube.083
v 0.605816 -2.039514 -0.052016
v 0.590066 -2.039514 -0.052016
v 0.590066 -1.761264 -0.052016
v 0.605816 -1.761264 -0.052016
v 0.605816 -2.039514 0.089734
v 0.605816 -1.761264 0.089734
v 0.590066 -2.039514 0.089734
v 0.590066 -1.761264 0.089734
vt 0.000000 0.265625
vt 1.000000 0.265625
vt 1.000000 1.000000
vt 0.000000 1.000000
vt 0.000000 0.265625
vt 0.062500 0.265625
vt 0.062500 1.000000
vt 0.000000 1.000000
vt 0.000000 0.265625
vt 1.000000 0.265625
vt 1.000000 1.000000
vt 0.000000 1.000000
vt 0.000000 0.265625
vt 0.062500 0.265625
vt 0.062500 1.000000
vt 0.000000 1.000000
vt 0.000000 0.966250
vt 0.035000 0.966250
vt 0.035000 1.000000
vt 0.000000 0.937500
vt 1.000000 0.937500
vt 1.000000 1.000000
vt 0.000000 1.000000
vn 0.0000 0.0000 -1.0000
vn 1.0000 0.0000 0.0000
vn 0.0000 -0.0000 1.0000
vn -1.0000 0.0000 0.0000
vn 0.0000 1.0000 0.0000
vn 0.0000 -1.0000 0.0000
usemtl m_2.001
s 1
f 153/426/115 154/427/115 155/428/115 156/429/115
f 157/430/116 153/431/116 156/432/116 158/433/116
f 159/434/117 157/435/117 158/436/117 160/437/117
f 154/438/118 159/439/118 160/440/118 155/441/118
f 160/442/119 158/443/119 156/444/119 155/441/119
f 154/445/120 153/446/120 157/447/120 159/448/120
