# Blender v3.0.0 OBJ File: ''
# www.blender.org
mtllib deco2.mtl
o cube.151
v 0.701548 -0.563394 0.443750
v -0.349365 -0.998696 0.443750
v -0.385242 -0.912082 0.443750
v 0.665671 -0.476780 0.443750
v 0.701548 -0.563394 0.468750
v 0.665671 -0.476780 0.468750
v -0.349365 -0.998696 0.468750
v -0.385242 -0.912082 0.468750
vt 0.000000 0.906250
vt 1.000000 0.906250
vt 1.000000 1.000000
vt 0.000000 1.000000
vt 0.000000 0.906250
vt 0.025000 0.906250
vt 0.025000 1.000000
vt 0.000000 1.000000
vt 0.000000 0.906250
vt 1.000000 0.906250
vt 1.000000 1.000000
vt 0.000000 1.000000
vt 0.000000 0.906250
vt 0.025000 0.906250
vt 0.025000 1.000000
vt 0.000000 1.000000
vt 0.000000 0.975000
vt 1.000000 0.975000
vt 1.000000 1.000000
vt 0.000000 0.975000
vt 1.000000 0.975000
vt 1.000000 1.000000
vt 0.000000 1.000000
vn 0.0000 0.0000 -1.0000
vn 0.9239 0.3827 0.0000
vn -0.0000 -0.0000 1.0000
vn -0.9239 -0.3827 0.0000
vn -0.3827 0.9239 0.0000
vn 0.3827 -0.9239 0.0000
usemtl m_0.003
s 1
f 1/1/1 2/2/1 3/3/1 4/4/1
f 5/5/2 1/6/2 4/7/2 6/8/2
f 7/9/3 5/10/3 6/11/3 8/12/3
f 2/13/4 7/14/4 8/15/4 3/16/4
f 8/17/5 6/18/5 4/19/5 3/16/5
f 2/20/6 1/21/6 5/22/6 7/23/6
o cube.152
v 0.376072 -0.317252 0.443750
v -0.565130 -0.707111 0.443750
v -0.601007 -0.620497 0.443750
v 0.340195 -0.230638 0.443750
v 0.376072 -0.317252 0.468750
v 0.340195 -0.230638 0.468750
v -0.565130 -0.707111 0.468750
v -0.601007 -0.620497 0.468750
vt 0.000000 0.906250
vt 1.000000 0.906250
vt 1.000000 1.000000
vt 0.000000 1.000000
vt 0.000000 0.906250
vt 0.025000 0.906250
vt 0.025000 1.000000
vt 0.000000 1.000000
vt 0.000000 0.906250
vt 1.000000 0.906250
vt 1.000000 1.000000
vt 0.000000 1.000000
vt 0.000000 0.906250
vt 0.025000 0.906250
vt 0.025000 1.000000
vt 0.000000 1.000000
vt 0.000000 0.975000
vt 1.000000 0.975000
vt 1.000000 1.000000
vt 0.000000 0.975000
vt 1.000000 0.975000
vt 1.000000 1.000000
vt 0.000000 1.000000
vn 0.0000 0.0000 -1.0000
vn 0.9239 0.3827 0.0000
vn 0.0000 -0.0000 1.0000
vn -0.9239 -0.3827 0.0000
vn -0.3827 0.9239 0.0000
vn 0.3827 -0.9239 -0.0000
usemtl m_0.003
s 1
f 9/24/7 10/25/7 11/26/7 12/27/7
f 13/28/8 9/29/8 12/30/8 14/31/8
f 15/32/9 13/33/9 14/34/9 16/35/9
f 10/36/10 15/37/10 16/38/10 11/39/10
f 16/40/11 14/41/11 12/42/11 11/39/11
f 10/43/12 9/44/12 13/45/12 15/46/12
o cube.153
v 0.318750 -0.850046 0.418750
v -0.618750 -0.850046 0.418750
v -0.618750 -0.756296 0.418750
v 0.318750 -0.756296 0.418750
v 0.318750 -0.850046 0.468750
v 0.318750 -0.756296 0.468750
v -0.618750 -0.850046 0.468750
v -0.618750 -0.756296 0.468750
vt 0.000000 0.906250
vt 0.937500 0.906250
vt 0.937500 1.000000
vt 0.000000 1.000000
vt 0.000000 0.906250
vt 0.050000 0.906250
vt 0.050000 1.000000
vt 0.000000 1.000000
vt 0.000000 0.906250
vt 0.937500 0.906250
vt 0.937500 1.000000
vt 0.000000 1.000000
vt 0.000000 0.906250
vt 0.050000 0.906250
vt 0.050000 1.000000
vt 0.000000 1.000000
vt 0.000000 0.950000
vt 0.937500 0.950000
vt 0.937500 1.000000
vt 0.000000 0.950000
vt 0.937500 0.950000
vt 0.937500 1.000000
vt 0.000000 1.000000
vn 0.0000 0.0000 -1.0000
vn 1.0000 0.0000 0.0000
vn 0.0000 0.0000 1.0000
vn -1.0000 0.0000 0.0000
vn 0.0000 1.0000 0.0000
vn 0.0000 -1.0000 -0.0000
usemtl m_0.003
s 1
f 17/47/13 18/48/13 19/49/13 20/50/13
f 21/51/14 17/52/14 20/53/14 22/54/14
f 23/55/15 21/56/15 22/57/15 24/58/15
f 18/59/16 23/60/16 24/61/16 19/62/16
f 24/63/17 22/64/17 20/65/17 19/62/17
f 18/66/18 17/67/18 21/68/18 23/69/18
o cube.154
v 0.683880 -0.838361 0.437500
v -0.268871 -0.443718 0.437500
v -0.232994 -0.357105 0.437500
v 0.719757 -0.751747 0.437500
v 0.683880 -0.838361 0.468750
v 0.719757 -0.751747 0.468750
v -0.268871 -0.443718 0.468750
v -0.232994 -0.357105 0.468750
vt 0.000000 0.906250
vt 1.000000 0.906250
vt 1.000000 1.000000
vt 0.000000 1.000000
vt 0.000000 0.906250
vt 0.031250 0.906250
vt 0.031250 1.000000
vt 0.000000 1.000000
vt 0.000000 0.906250
vt 1.000000 0.906250
vt 1.000000 1.000000
vt 0.000000 1.000000
vt 0.000000 0.906250
vt 0.031250 0.906250
vt 0.031250 1.000000
vt 0.000000 1.000000
vt 0.000000 0.968750
vt 1.000000 0.968750
vt 1.000000 1.000000
vt 0.000000 0.968750
vt 1.000000 0.968750
vt 1.000000 1.000000
vt 0.000000 1.000000
vn -0.0000 0.0000 -1.0000
vn 0.9239 -0.3827 0.0000
vn 0.0000 -0.0000 1.0000
vn -0.9239 0.3827 0.0000
vn 0.3827 0.9239 0.0000
vn -0.3827 -0.9239 0.0000
usemtl m_0.003
s 1
f 25/70/19 26/71/19 27/72/19 28/73/19
f 29/74/20 25/75/20 28/76/20 30/77/20
f 31/78/21 29/79/21 30/80/21 32/81/21
f 26/82/22 31/83/22 32/84/22 27/85/22
f 32/86/23 30/87/23 28/88/23 27/85/23
f 26/89/24 25/90/24 29/91/24 31/92/24
o cube.155
v -0.051689 -0.955273 0.437500
v -0.714602 -0.292360 0.437500
v -0.648311 -0.226069 0.437500
v 0.014602 -0.888982 0.437500
v -0.051689 -0.955273 0.468750
v 0.014602 -0.888982 0.468750
v -0.714602 -0.292360 0.468750
v -0.648311 -0.226069 0.468750
vt 0.000000 0.906250
vt 0.937500 0.906250
vt 0.937500 1.000000
vt 0.000000 1.000000
vt 0.000000 0.906250
vt 0.031250 0.906250
vt 0.031250 1.000000
vt 0.000000 1.000000
vt 0.000000 0.906250
vt 0.937500 0.906250
vt 0.937500 1.000000
vt 0.000000 1.000000
vt 0.000000 0.906250
vt 0.031250 0.906250
vt 0.031250 1.000000
vt 0.000000 1.000000
vt 0.000000 0.968750
vt 0.937500 0.968750
vt 0.937500 1.000000
vt 0.000000 0.968750
vt 0.937500 0.968750
vt 0.937500 1.000000
vt 0.000000 1.000000
vn 0.0000 0.0000 -1.0000
vn 0.7071 -0.7071 -0.0000
vn 0.0000 -0.0000 1.0000
vn -0.7071 0.7071 0.0000
vn 0.7071 0.7071 0.0000
vn -0.7071 -0.7071 0.0000
usemtl m_0.003
s 1
f 33/93/25 34/94/25 35/95/25 36/96/25
f 37/97/26 33/98/26 36/99/26 38/100/26
f 39/101/27 37/102/27 38/103/27 40/104/27
f 34/105/28 39/106/28 40/107/28 35/108/28
f 40/109/29 38/110/29 36/111/29 35/108/29
f 34/112/30 33/113/30 37/114/30 39/115/30
o cube.156
v 0.166056 -0.959607 0.425000
v 0.079442 -0.995484 0.425000
v -0.260190 -0.175541 0.425000
v -0.173576 -0.139664 0.425000
v 0.166056 -0.959607 0.468750
v -0.173576 -0.139664 0.468750
v 0.079442 -0.995484 0.468750
v -0.260190 -0.175541 0.468750
vt 0.000000 1.000000
vt 0.000000 0.906250
vt 0.887500 0.906250
vt 0.887500 1.000000
vt 0.000000 1.000000
vt 0.000000 0.956250
vt 0.887500 0.956250
vt 0.887500 1.000000
vt 0.887500 0.906250
vt 0.887500 1.000000
vt 0.000000 1.000000
vt 0.000000 0.906250
vt 0.000000 1.000000
vt 0.000000 0.956250
vt 0.887500 0.956250
vt 0.887500 1.000000
vt 0.043750 0.906250
vt 0.043750 1.000000
vt 0.000000 1.000000
vt 0.000000 0.906250
vt 0.000000 0.906250
vt 0.043750 0.906250
vt 0.043750 1.000000
vn 0.0000 0.0000 -1.0000
vn 0.9239 0.3827 0.0000
vn -0.0000 -0.0000 1.0000
vn -0.9239 -0.3827 0.0000
vn -0.3827 0.9239 0.0000
vn 0.3827 -0.9239 0.0000
usemtl m_0.003
s 1
f 41/116/31 42/117/31 43/118/31 44/119/31
f 45/120/32 41/121/32 44/122/32 46/123/32
f 47/124/33 45/125/33 46/126/33 48/127/33
f 42/128/34 47/129/34 48/130/34 43/131/34
f 48/132/35 46/133/35 44/134/35 43/135/35
f 42/128/36 41/136/36 45/137/36 47/138/36
o cube.157
v 0.137301 -0.998814 0.431250
v 0.050687 -0.962937 0.431250
v 0.373576 -0.183414 0.431250
v 0.460190 -0.219291 0.431250
v 0.137301 -0.998814 0.468750
v 0.460190 -0.219291 0.468750
v 0.050687 -0.962937 0.468750
v 0.373576 -0.183414 0.468750
vt 0.000000 1.000000
vt 0.000000 0.906250
vt 0.843750 0.906250
vt 0.843750 1.000000
vt 0.000000 1.000000
vt 0.000000 0.962500
vt 0.843750 0.962500
vt 0.843750 1.000000
vt 0.843750 0.906250
vt 0.843750 1.000000
vt 0.000000 1.000000
vt 0.000000 0.906250
vt 0.000000 1.000000
vt 0.000000 0.962500
vt 0.843750 0.962500
vt 0.843750 1.000000
vt 0.037500 0.906250
vt 0.037500 1.000000
vt 0.000000 1.000000
vt 0.000000 0.906250
vt 0.000000 0.906250
vt 0.037500 0.906250
vt 0.037500 1.000000
vn 0.0000 0.0000 -1.0000
vn 0.9239 -0.3827 0.0000
vn 0.0000 -0.0000 1.0000
vn -0.9239 0.3827 0.0000
vn 0.3827 0.9239 0.0000
vn -0.3827 -0.9239 0.0000
usemtl m_0.003
s 1
f 49/139/37 50/140/37 51/141/37 52/142/37
f 53/143/38 49/144/38 52/145/38 54/146/38
f 55/147/39 53/148/39 54/149/39 56/150/39
f 50/151/40 55/152/40 56/153/40 51/154/40
f 56/155/41 54/156/41 52/157/41 51/158/41
f 50/151/42 49/159/42 53/160/42 55/161/42
o cube.158
v 0.737500 -0.656296 0.443750
v -0.293750 -0.656296 0.443750
v -0.293750 -0.562546 0.443750
v 0.737500 -0.562546 0.443750
v 0.737500 -0.656296 0.468750
v 0.737500 -0.562546 0.468750
v -0.293750 -0.656296 0.468750
v -0.293750 -0.562546 0.468750
vt 0.000000 0.906250
vt 1.000000 0.906250
vt 1.000000 1.000000
vt 0.000000 1.000000
vt 0.000000 0.906250
vt 0.025000 0.906250
vt 0.025000 1.000000
vt 0.000000 1.000000
vt 0.000000 0.906250
vt 1.000000 0.906250
vt 1.000000 1.000000
vt 0.000000 1.000000
vt 0.000000 0.906250
vt 0.025000 0.906250
vt 0.025000 1.000000
vt 0.000000 1.000000
vt 0.000000 0.975000
vt 1.000000 0.975000
vt 1.000000 1.000000
vt 0.000000 0.975000
vt 1.000000 0.975000
vt 1.000000 1.000000
vt 0.000000 1.000000
vn 0.0000 0.0000 -1.0000
vn 1.0000 0.0000 0.0000
vn 0.0000 0.0000 1.0000
vn -1.0000 0.0000 0.0000
vn 0.0000 1.0000 0.0000
vn 0.0000 -1.0000 -0.0000
usemtl m_0.003
s 1
f 57/162/43 58/163/43 59/164/43 60/165/43
f 61/166/44 57/167/44 60/168/44 62/169/44
f 63/170/45 61/171/45 62/172/45 64/173/45
f 58/174/46 63/175/46 64/176/46 59/177/46
f 64/178/47 62/179/47 60/180/47 59/177/47
f 58/181/48 57/182/48 61/183/48 63/184/48
o cube.159
v 0.683880 -0.538361 0.437500
v -0.049449 -0.234606 0.437500
v -0.013573 -0.147992 0.437500
v 0.719757 -0.451747 0.437500
v 0.683880 -0.538361 0.468750
v 0.719757 -0.451747 0.468750
v -0.049449 -0.234606 0.468750
v -0.013573 -0.147992 0.468750
vt 0.000000 0.906250
vt 0.793750 0.906250
vt 0.793750 1.000000
vt 0.000000 1.000000
vt 0.000000 0.906250
vt 0.031250 0.906250
vt 0.031250 1.000000
vt 0.000000 1.000000
vt 0.000000 0.906250
vt 0.793750 0.906250
vt 0.793750 1.000000
vt 0.000000 1.000000
vt 0.000000 0.906250
vt 0.031250 0.906250
vt 0.031250 1.000000
vt 0.000000 1.000000
vt 0.000000 0.968750
vt 0.793750 0.968750
vt 0.793750 1.000000
vt 0.000000 0.968750
vt 0.793750 0.968750
vt 0.793750 1.000000
vt 0.000000 1.000000
vn 0.0000 0.0000 -1.0000
vn 0.9239 -0.3827 0.0000
vn 0.0000 -0.0000 1.0000
vn -0.9239 0.3827 0.0000
vn 0.3827 0.9239 0.0000
vn -0.3827 -0.9239 0.0000
usemtl m_0.003
s 1
f 65/185/49 66/186/49 67/187/49 68/188/49
f 69/189/50 65/190/50 68/191/50 70/192/50
f 71/193/51 69/194/51 70/195/51 72/196/51
f 66/197/52 71/198/52 72/199/52 67/200/52
f 72/201/53 70/202/53 68/203/53 67/200/53
f 66/204/54 65/205/54 69/206/54 71/207/54
o cube.160
v 0.478125 -1.009421 0.425000
v 0.384375 -1.009421 0.425000
v 0.384375 -0.121921 0.425000
v 0.478125 -0.121921 0.425000
v 0.478125 -1.009421 0.468750
v 0.478125 -0.121921 0.468750
v 0.384375 -1.009421 0.468750
v 0.384375 -0.121921 0.468750
vt 0.000000 1.000000
vt 0.000000 0.906250
vt 0.887500 0.906250
vt 0.887500 1.000000
vt 0.000000 1.000000
vt 0.000000 0.956250
vt 0.887500 0.956250
vt 0.887500 1.000000
vt 0.887500 0.906250
vt 0.887500 1.000000
vt 0.000000 1.000000
vt 0.000000 0.906250
vt 0.000000 1.000000
vt 0.000000 0.956250
vt 0.887500 0.956250
vt 0.887500 1.000000
vt 0.043750 0.906250
vt 0.043750 1.000000
vt 0.000000 1.000000
vt 0.000000 0.906250
vt 0.000000 0.906250
vt 0.043750 0.906250
vt 0.043750 1.000000
vn 0.0000 0.0000 -1.0000
vn 1.0000 0.0000 0.0000
vn 0.0000 -0.0000 1.0000
vn -1.0000 0.0000 0.0000
vn 0.0000 1.0000 0.0000
vn 0.0000 -1.0000 0.0000
usemtl m_0.003
s 1
f 73/208/55 74/209/55 75/210/55 76/211/55
f 77/212/56 73/213/56 76/214/56 78/215/56
f 79/216/57 77/217/57 78/218/57 80/219/57
f 74/220/58 79/221/58 80/222/58 75/223/58
f 80/224/59 78/225/59 76/226/59 75/227/59
f 74/220/60 73/228/60 77/229/60 79/230/60
o cube.161
v -0.554442 -0.995484 0.431250
v -0.641056 -0.959607 0.431250
v -0.346868 -0.249375 0.431250
v -0.260254 -0.285251 0.431250
v -0.554442 -0.995484 0.468750
v -0.260254 -0.285251 0.468750
v -0.641056 -0.959607 0.468750
v -0.346868 -0.249375 0.468750
vt 0.000000 1.000000
vt 0.000000 0.906250
vt 0.768750 0.906250
vt 0.768750 1.000000
vt 0.000000 1.000000
vt 0.000000 0.962500
vt 0.768750 0.962500
vt 0.768750 1.000000
vt 0.768750 0.906250
vt 0.768750 1.000000
vt 0.000000 1.000000
vt 0.000000 0.906250
vt 0.000000 1.000000
vt 0.000000 0.962500
vt 0.768750 0.962500
vt 0.768750 1.000000
vt 0.037500 0.906250
vt 0.037500 1.000000
vt 0.000000 1.000000
vt 0.000000 0.906250
vt 0.000000 0.906250
vt 0.037500 0.906250
vt 0.037500 1.000000
vn 0.0000 0.0000 -1.0000
vn 0.9239 -0.3827 0.0000
vn 0.0000 -0.0000 1.0000
vn -0.9239 0.3827 0.0000
vn 0.3827 0.9239 0.0000
vn -0.3827 -0.9239 0.0000
usemtl m_0.003
s 1
f 81/231/61 82/232/61 83/233/61 84/234/61
f 85/235/62 81/236/62 84/237/62 86/238/62
f 87/239/63 85/240/63 86/241/63 88/242/63
f 82/243/64 87/244/64 88/245/64 83/246/64
f 88/247/65 86/248/65 84/249/65 83/250/65
f 82/243/66 81/251/66 85/252/66 87/253/66
o cube.162
v -0.595278 -0.367490 0.468750
v -0.606326 -0.356442 0.468750
v -0.584229 -0.334345 0.468750
v -0.573181 -0.345393 0.468750
v -0.595278 -0.367490 0.481250
v -0.573181 -0.345393 0.481250
v -0.606326 -0.356442 0.481250
v -0.584229 -0.334345 0.481250
vt 0.000000 0.968750
vt 0.015625 0.968750
vt 0.015625 1.000000
vt 0.000000 1.000000
vt 0.000000 0.968750
vt 0.012500 0.968750
vt 0.012500 1.000000
vt 0.000000 1.000000
vt 0.000000 0.968750
vt 0.015625 0.968750
vt 0.015625 1.000000
vt 0.000000 1.000000
vt 0.000000 0.968750
vt 0.012500 0.968750
vt 0.012500 1.000000
vt 0.000000 1.000000
vt 0.000000 0.987500
vt 0.015625 0.987500
vt 0.015625 1.000000
vt 0.000000 0.987500
vt 0.015625 0.987500
vt 0.015625 1.000000
vt 0.000000 1.000000
vn 0.0000 0.0000 -1.0000
vn 0.7071 -0.7071 0.0000
vn 0.0000 0.0000 1.0000
vn -0.7071 0.7071 0.0000
vn 0.7071 0.7071 0.0000
vn -0.7071 -0.7071 0.0000
usemtl m_1.004
s 1
f 89/254/67 90/255/67 91/256/67 92/257/67
f 93/258/68 89/259/68 92/260/68 94/261/68
f 95/262/69 93/263/69 94/264/69 96/265/69
f 90/266/70 95/267/70 96/268/70 91/269/70
f 96/270/71 94/271/71 92/272/71 91/269/71
f 90/273/72 89/274/72 93/275/72 95/276/72
o cube.163
v -0.242952 -0.920793 0.468750
v -0.257388 -0.926773 0.468750
v -0.269346 -0.897902 0.468750
v -0.254911 -0.891922 0.468750
v -0.242952 -0.920793 0.481250
v -0.254911 -0.891922 0.481250
v -0.257388 -0.926773 0.481250
v -0.269346 -0.897902 0.481250
vt 0.000000 0.968750
vt 0.015625 0.968750
vt 0.015625 1.000000
vt 0.000000 1.000000
vt 0.000000 0.968750
vt 0.012500 0.968750
vt 0.012500 1.000000
vt 0.000000 1.000000
vt 0.000000 0.968750
vt 0.015625 0.968750
vt 0.015625 1.000000
vt 0.000000 1.000000
vt 0.000000 0.968750
vt 0.012500 0.968750
vt 0.012500 1.000000
vt 0.000000 1.000000
vt 0.000000 0.987500
vt 0.015625 0.987500
vt 0.015625 1.000000
vt 0.000000 0.987500
vt 0.015625 0.987500
vt 0.015625 1.000000
vt 0.000000 1.000000
vn -0.0000 0.0000 -1.0000
vn 0.9239 0.3827 0.0000
vn 0.0000 0.0000 1.0000
vn -0.9239 -0.3827 0.0000
vn -0.3827 0.9239 0.0000
vn 0.3827 -0.9239 0.0000
usemtl m_1.004
s 1
f 97/277/73 98/278/73 99/279/73 100/280/73
f 101/281/74 97/282/74 100/283/74 102/284/74
f 103/285/75 101/286/75 102/287/75 104/288/75
f 98/289/76 103/290/76 104/291/76 99/292/76
f 104/293/77 102/294/77 100/295/77 99/292/77
f 98/296/78 97/297/78 101/298/78 103/299/78
o cube.164
v 0.320101 -0.475834 0.468750
v 0.291230 -0.463875 0.468750
v 0.297209 -0.449440 0.468750
v 0.326081 -0.461399 0.468750
v 0.320101 -0.475834 0.481250
v 0.326081 -0.461399 0.481250
v 0.291230 -0.463875 0.481250
v 0.297209 -0.449440 0.481250
vt 0.000000 1.000000
vt 0.000000 0.968750
vt 0.015625 0.968750
vt 0.015625 1.000000
vt 0.000000 1.000000
vt 0.000000 0.987500
vt 0.015625 0.987500
vt 0.015625 1.000000
vt 0.015625 0.968750
vt 0.015625 1.000000
vt 0.000000 1.000000
vt 0.000000 0.968750
vt 0.000000 1.000000
vt 0.000000 0.987500
vt 0.015625 0.987500
vt 0.015625 1.000000
vt 0.012500 0.968750
vt 0.012500 1.000000
vt 0.000000 1.000000
vt 0.000000 0.968750
vt 0.000000 0.968750
vt 0.012500 0.968750
vt 0.012500 1.000000
vn 0.0000 0.0000 -1.0000
vn 0.9239 -0.3827 0.0000
vn -0.0000 0.0000 1.0000
vn -0.9239 0.3827 0.0000
vn 0.3827 0.9239 0.0000
vn -0.3827 -0.9239 0.0000
usemtl m_1.004
s 1
f 105/300/79 106/301/79 107/302/79 108/303/79
f 109/304/80 105/305/80 108/306/80 110/307/80
f 111/308/81 109/309/81 110/310/81 112/311/81
f 106/312/82 111/313/82 112/314/82 107/315/82
f 112/316/83 110/317/83 108/318/83 107/319/83
f 106/312/84 105/320/84 109/321/84 111/322/84
