# Blender v3.0.0 OBJ File: ''
# www.blender.org
mtllib tapis.mtl
o cube.043
v 0.087216 -1.493750 -1.514635
v -0.778921 -1.493750 -1.873401
v -0.778921 -1.475000 -1.873401
v 0.087216 -1.475000 -1.514635
v -0.271550 -1.493750 -0.648498
v -0.271550 -1.475000 -0.648498
v -1.137687 -1.493750 -1.007264
v -1.137687 -1.475000 -1.007264
vt 0.000000 0.981250
vt 0.937500 0.981250
vt 0.937500 1.000000
vt 0.000000 1.000000
vt 0.000000 0.981250
vt 0.937500 0.981250
vt 0.937500 1.000000
vt 0.000000 1.000000
vt 0.000000 0.981250
vt 0.937500 0.981250
vt 0.937500 1.000000
vt 0.000000 1.000000
vt 0.000000 0.981250
vt 0.937500 0.981250
vt 0.937500 1.000000
vt 0.000000 1.000000
vt 0.000000 0.062500
vt 0.937500 0.062500
vt 0.000000 0.062500
vt 0.937500 0.062500
vt 0.937500 1.000000
vt 0.000000 1.000000
vn 0.3827 0.0000 -0.9239
vn 0.9239 0.0000 0.3827
vn -0.3827 0.0000 0.9239
vn -0.9239 0.0000 -0.3827
vn 0.0000 1.0000 0.0000
vn 0.0000 -1.0000 0.0000
usemtl m_0.001
s 1
f 1/1/1 2/2/1 3/3/1 4/4/1
f 5/5/2 1/6/2 4/7/2 6/8/2
f 7/9/3 5/10/3 6/11/3 8/12/3
f 2/13/4 7/14/4 8/15/4 3/16/4
f 8/17/5 6/18/5 4/7/5 3/16/5
f 2/19/6 1/20/6 5/21/6 7/22/6
o cube.044
v 1.518467 -1.493750 0.092951
v 0.652330 -1.493750 -0.265815
v 0.652330 -1.475000 -0.265815
v 1.518467 -1.475000 0.092951
v 1.147743 -1.493750 0.987959
v 1.147743 -1.475000 0.987959
v 0.281605 -1.493750 0.629194
v 0.281605 -1.475000 0.629194
vt 0.000000 0.981250
vt 0.937500 0.981250
vt 0.937500 1.000000
vt 0.000000 1.000000
vt 0.000000 0.981250
vt 0.968750 0.981250
vt 0.968750 1.000000
vt 0.000000 1.000000
vt 0.000000 0.981250
vt 0.937500 0.981250
vt 0.937500 1.000000
vt 0.000000 1.000000
vt 0.000000 0.981250
vt 0.968750 0.981250
vt 0.968750 1.000000
vt 0.000000 1.000000
vt 0.000000 0.031250
vt 0.937500 0.031250
vt 0.937500 1.000000
vt 0.000000 0.031250
vt 0.937500 0.031250
vt 0.937500 1.000000
vt 0.000000 1.000000
vn 0.3827 0.0000 -0.9239
vn 0.9239 0.0000 0.3827
vn -0.3827 0.0000 0.9239
vn -0.9239 0.0000 -0.3827
vn -0.0000 1.0000 0.0000
vn -0.0000 -1.0000 0.0000
usemtl m_0.001
s 1
f 9/23/7 10/24/7 11/25/7 12/26/7
f 13/27/8 9/28/8 12/29/8 14/30/8
f 15/31/9 13/32/9 14/33/9 16/34/9
f 10/35/10 15/36/10 16/37/10 11/38/10
f 16/39/11 14/40/11 12/41/11 11/38/11
f 10/42/12 9/43/12 13/44/12 15/45/12
o cube.045
v -0.654233 -1.493750 0.275382
v -1.520370 -1.493750 -0.083384
v -1.520370 -1.475000 -0.083384
v -0.654233 -1.475000 0.275382
v -1.012999 -1.493750 1.141519
v -1.012999 -1.475000 1.141519
v -1.879136 -1.493750 0.782753
v -1.879136 -1.475000 0.782753
vt 0.000000 0.981250
vt 0.937500 0.981250
vt 0.937500 1.000000
vt 0.000000 1.000000
vt 0.000000 0.981250
vt 0.937500 0.981250
vt 0.937500 1.000000
vt 0.000000 1.000000
vt 0.000000 0.981250
vt 0.937500 0.981250
vt 0.937500 1.000000
vt 0.000000 1.000000
vt 0.000000 0.981250
vt 0.937500 0.981250
vt 0.937500 1.000000
vt 0.000000 1.000000
vt 0.000000 0.062500
vt 0.937500 0.062500
vt 0.937500 1.000000
vt 0.000000 1.000000
vt 0.000000 0.062500
vt 0.937500 0.062500
vn 0.3827 0.0000 -0.9239
vn 0.9239 0.0000 0.3827
vn -0.3827 0.0000 0.9239
vn -0.9239 0.0000 -0.3827
vn -0.0000 1.0000 0.0000
vn -0.0000 -1.0000 0.0000
usemtl m_1.001
s 1
f 17/46/13 18/47/13 19/48/13 20/49/13
f 21/50/14 17/51/14 20/52/14 22/53/14
f 23/54/15 21/55/15 22/56/15 24/57/15
f 18/58/16 23/59/16 24/60/16 19/61/16
f 24/60/17 22/53/17 20/62/17 19/63/17
f 18/64/18 17/65/18 21/66/18 23/67/18
o cube.046
v -0.283508 -1.493750 -0.619627
v -1.149645 -1.493750 -0.978392
v -1.149645 -1.475000 -0.978392
v -0.283508 -1.475000 -0.619627
v -0.654233 -1.493750 0.275382
v -0.654233 -1.475000 0.275382
v -1.520370 -1.493750 -0.083384
v -1.520370 -1.475000 -0.083384
vt 0.000000 0.981250
vt 0.937500 0.981250
vt 0.937500 1.000000
vt 0.000000 1.000000
vt 0.000000 0.981250
vt 0.968750 0.981250
vt 0.968750 1.000000
vt 0.000000 1.000000
vt 0.000000 0.981250
vt 0.937500 0.981250
vt 0.937500 1.000000
vt 0.000000 1.000000
vt 0.000000 0.981250
vt 0.968750 0.981250
vt 0.968750 1.000000
vt 0.000000 1.000000
vt 0.937500 1.000000
vt 0.000000 0.031250
vt 0.937500 0.031250
vt 0.937500 1.000000
vt 0.000000 1.000000
vt 0.000000 0.031250
vt 0.937500 0.031250
vn 0.3827 0.0000 -0.9239
vn 0.9239 0.0000 0.3827
vn -0.3827 0.0000 0.9239
vn -0.9239 0.0000 -0.3827
vn -0.0000 1.0000 0.0000
vn 0.0000 -1.0000 -0.0000
usemtl m_1.001
s 1
f 25/68/19 26/69/19 27/70/19 28/71/19
f 29/72/20 25/73/20 28/74/20 30/75/20
f 31/76/21 29/77/21 30/78/21 32/79/21
f 26/80/22 31/81/22 32/82/22 27/83/22
f 32/84/23 30/75/23 28/85/23 27/86/23
f 26/87/24 25/88/24 29/89/24 31/90/24
o cube.047
v 0.611500 -1.493750 -0.248902
v -0.254637 -1.493750 -0.607668
v -0.254637 -1.468750 -0.607668
v 0.611500 -1.468750 -0.248902
v 0.252734 -1.493750 0.617235
v 0.252734 -1.468750 0.617235
v -0.613403 -1.493750 0.258469
v -0.613403 -1.468750 0.258469
vt 0.000000 0.975000
vt 0.937500 0.975000
vt 0.937500 1.000000
vt 0.000000 1.000000
vt 0.000000 0.975000
vt 0.937500 0.975000
vt 0.937500 1.000000
vt 0.000000 1.000000
vt 0.000000 0.975000
vt 0.937500 0.975000
vt 0.937500 1.000000
vt 0.000000 1.000000
vt 0.000000 0.975000
vt 0.937500 0.975000
vt 0.937500 1.000000
vt 0.000000 1.000000
vt 0.000000 0.062500
vt 0.937500 0.062500
vt 0.937500 1.000000
vt 0.000000 1.000000
vt 0.000000 0.062500
vt 0.937500 0.062500
vn 0.3827 0.0000 -0.9239
vn 0.9239 0.0000 0.3827
vn -0.3827 0.0000 0.9239
vn -0.9239 0.0000 -0.3827
vn 0.0000 1.0000 0.0000
vn 0.0000 -1.0000 -0.0000
usemtl m_2
s 1
f 33/91/25 34/92/25 35/93/25 36/94/25
f 37/95/26 33/96/26 36/97/26 38/98/26
f 39/99/27 37/100/27 38/101/27 40/102/27
f 34/103/28 39/104/28 40/105/28 35/106/28
f 40/105/29 38/98/29 36/107/29 35/108/29
f 34/109/30 33/110/30 37/111/30 39/112/30
o cube.048
v 0.953353 -1.493750 -1.155869
v 0.087216 -1.493750 -1.514635
v 0.087216 -1.475000 -1.514635
v 0.953353 -1.475000 -1.155869
v 0.594588 -1.493750 -0.289732
v 0.594588 -1.475000 -0.289732
v -0.271550 -1.493750 -0.648498
v -0.271550 -1.475000 -0.648498
vt 0.000000 0.981250
vt 0.937500 0.981250
vt 0.937500 1.000000
vt 0.000000 1.000000
vt 0.000000 0.981250
vt 0.937500 0.981250
vt 0.937500 1.000000
vt 0.000000 1.000000
vt 0.000000 0.981250
vt 0.937500 0.981250
vt 0.937500 1.000000
vt 0.000000 1.000000
vt 0.000000 0.981250
vt 0.937500 0.981250
vt 0.937500 1.000000
vt 0.000000 1.000000
vt 0.000000 0.062500
vt 0.937500 0.062500
vt 0.000000 0.062500
vt 0.937500 0.062500
vt 0.937500 1.000000
vt 0.000000 1.000000
vn 0.3827 0.0000 -0.9239
vn 0.9239 0.0000 0.3827
vn -0.3827 0.0000 0.9239
vn -0.9239 0.0000 -0.3827
vn -0.0000 1.0000 0.0000
vn -0.0000 -1.0000 0.0000
usemtl m_0.001
s 1
f 41/113/31 42/114/31 43/115/31 44/116/31
f 45/117/32 41/118/32 44/119/32 46/120/32
f 47/121/33 45/122/33 46/123/33 48/124/33
f 42/125/34 47/126/34 48/127/34 43/128/34
f 48/129/35 46/130/35 44/119/35 43/128/35
f 42/131/36 41/132/36 45/133/36 47/134/36
o cube.049
v 0.211904 -1.493750 0.634147
v -0.654233 -1.493750 0.275382
v -0.654233 -1.475000 0.275382
v 0.211904 -1.475000 0.634147
v -0.146862 -1.493750 1.500284
v -0.146862 -1.475000 1.500284
v -1.012999 -1.493750 1.141519
v -1.012999 -1.475000 1.141519
vt 0.000000 0.981250
vt 0.937500 0.981250
vt 0.937500 1.000000
vt 0.000000 1.000000
vt 0.000000 0.981250
vt 0.937500 0.981250
vt 0.937500 1.000000
vt 0.000000 1.000000
vt 0.000000 0.981250
vt 0.937500 0.981250
vt 0.937500 1.000000
vt 0.000000 1.000000
vt 0.000000 0.981250
vt 0.937500 0.981250
vt 0.937500 1.000000
vt 0.000000 1.000000
vt 0.000000 0.062500
vt 0.937500 0.062500
vt 0.937500 1.000000
vt 0.000000 1.000000
vt 0.000000 0.062500
vt 0.937500 0.062500
vn 0.3827 0.0000 -0.9239
vn 0.9239 0.0000 0.3827
vn -0.3827 0.0000 0.9239
vn -0.9239 0.0000 -0.3827
vn 0.0000 1.0000 0.0000
vn 0.0000 -1.0000 -0.0000
usemtl m_1.001
s 1
f 49/135/37 50/136/37 51/137/37 52/138/37
f 53/139/38 49/140/38 52/141/38 54/142/38
f 55/143/39 53/144/39 54/145/39 56/146/39
f 50/147/40 55/148/40 56/149/40 51/150/40
f 56/149/41 54/142/41 52/151/41 51/152/41
f 50/153/42 49/154/42 53/155/42 55/156/42
o cube.050
v 1.877233 -1.493750 -0.773186
v 0.953353 -1.493750 -1.155869
v 0.953353 -1.475000 -1.155869
v 1.877233 -1.475000 -0.773186
v 1.518467 -1.493750 0.092951
v 1.518467 -1.475000 0.092951
v 0.594588 -1.493750 -0.289732
v 0.594588 -1.475000 -0.289732
vt 0.000000 0.981250
vt 1.000000 0.981250
vt 1.000000 1.000000
vt 0.000000 1.000000
vt 0.000000 0.981250
vt 0.937500 0.981250
vt 0.937500 1.000000
vt 0.000000 1.000000
vt 0.000000 0.981250
vt 1.000000 0.981250
vt 1.000000 1.000000
vt 0.000000 1.000000
vt 0.000000 0.981250
vt 0.937500 0.981250
vt 0.937500 1.000000
vt 0.000000 1.000000
vt 0.000000 0.062500
vt 1.000000 0.062500
vt 1.000000 1.000000
vt 0.000000 0.062500
vt 1.000000 0.062500
vt 1.000000 1.000000
vt 0.000000 1.000000
vn 0.3827 0.0000 -0.9239
vn 0.9239 0.0000 0.3827
vn -0.3827 0.0000 0.9239
vn -0.9239 0.0000 -0.3827
vn 0.0000 1.0000 0.0000
vn 0.0000 -1.0000 -0.0000
usemtl m_0.001
s 1
f 57/157/43 58/158/43 59/159/43 60/160/43
f 61/161/44 57/162/44 60/163/44 62/164/44
f 63/165/45 61/166/45 62/167/45 64/168/45
f 58/169/46 63/170/46 64/171/46 59/172/46
f 64/173/47 62/174/47 60/175/47 59/172/47
f 58/176/48 57/177/48 61/178/48 63/179/48
o cube.051
v 1.135784 -1.493750 1.016831
v 0.211904 -1.493750 0.634147
v 0.211904 -1.475000 0.634147
v 1.135784 -1.475000 1.016831
v 0.777018 -1.493750 1.882968
v 0.777018 -1.475000 1.882968
v -0.146862 -1.493750 1.500284
v -0.146862 -1.475000 1.500284
vt 0.000000 0.981250
vt 1.000000 0.981250
vt 1.000000 1.000000
vt 0.000000 1.000000
vt 0.000000 0.981250
vt 0.937500 0.981250
vt 0.937500 1.000000
vt 0.000000 1.000000
vt 0.000000 0.981250
vt 1.000000 0.981250
vt 1.000000 1.000000
vt 0.000000 1.000000
vt 0.000000 0.981250
vt 0.937500 0.981250
vt 0.937500 1.000000
vt 0.000000 1.000000
vt 1.000000 1.000000
vt 0.000000 0.062500
vt 1.000000 0.062500
vt 1.000000 1.000000
vt 0.000000 1.000000
vt 0.000000 0.062500
vt 1.000000 0.062500
vn 0.3827 0.0000 -0.9239
vn 0.9239 0.0000 0.3827
vn -0.3827 0.0000 0.9239
vn -0.9239 0.0000 -0.3827
vn -0.0000 1.0000 0.0000
vn -0.0000 -1.0000 -0.0000
usemtl m_1.001
s 1
f 65/180/49 66/181/49 67/182/49 68/183/49
f 69/184/50 65/185/50 68/186/50 70/187/50
f 71/188/51 69/189/51 70/190/51 72/191/51
f 66/192/52 71/193/52 72/194/52 67/195/52
f 72/196/53 70/187/53 68/197/53 67/198/53
f 66/199/54 65/200/54 69/201/54 71/202/54
o cube.052
v 1.501555 -1.500000 0.052121
v -1.096856 -1.500000 -1.024176
v -1.096856 -1.493750 -1.024176
v 1.501555 -1.493750 0.052121
v 1.094954 -1.500000 1.033743
v 1.094954 -1.493750 1.033743
v -1.503458 -1.500000 -0.042554
v -1.503458 -1.493750 -0.042554
vt 0.000000 0.993750
vt 1.000000 0.993750
vt 1.000000 1.000000
vt 0.000000 1.000000
vt 0.000000 0.993750
vt 1.000000 0.993750
vt 1.000000 1.000000
vt 0.000000 1.000000
vt 0.000000 0.993750
vt 1.000000 0.993750
vt 1.000000 1.000000
vt 0.000000 1.000000
vt 0.000000 0.993750
vt 1.000000 0.993750
vt 1.000000 1.000000
vt 0.000000 1.000000
vt 0.000000 0.000000
vt 1.000000 0.000000
vt 1.000000 1.000000
vt 0.000000 1.000000
vt 0.000000 0.000000
vt 1.000000 0.000000
vn 0.3827 0.0000 -0.9239
vn 0.9239 0.0000 0.3827
vn -0.3827 0.0000 0.9239
vn -0.9239 0.0000 -0.3827
vn -0.0000 1.0000 0.0000
vn 0.0000 -1.0000 -0.0000
usemtl m_3
s 1
f 73/203/55 74/204/55 75/205/55 76/206/55
f 77/207/56 73/208/56 76/209/56 78/210/56
f 79/211/57 77/212/57 78/213/57 80/214/57
f 74/215/58 79/216/58 80/217/58 75/218/58
f 80/217/59 78/210/59 76/219/59 75/220/59
f 74/221/60 73/222/60 77/223/60 79/224/60
